<svg xmlns="http://www.w3.org/2000/svg" xmlns:xlink="http://www.w3.org/1999/xlink" width="500" zoomAndPan="magnify" viewBox="0 0 375 374.999991" height="500" preserveAspectRatio="xMidYMid meet" version="1.0"><defs><g/><clipPath id="2fcad42489"><path d="M 8.066406 139.105469 L 97 139.105469 L 97 215 L 8.066406 215 Z M 8.066406 139.105469 " clip-rule="nonzero"/></clipPath><clipPath id="41d56195fd"><path d="M 40 139.105469 L 97 139.105469 L 97 235.855469 L 40 235.855469 Z M 40 139.105469 " clip-rule="nonzero"/></clipPath><clipPath id="c0121c5266"><path d="M 343.8125 182.507812 L 370.878906 182.507812 L 370.878906 190.101562 L 343.8125 190.101562 Z M 343.8125 182.507812 " clip-rule="nonzero"/></clipPath><clipPath id="cdf5514d39"><path d="M 333.316406 191.492188 L 370.257812 191.492188 L 370.257812 210.582031 L 333.316406 210.582031 Z M 333.316406 191.492188 " clip-rule="nonzero"/></clipPath><clipPath id="81e4c2b7b3"><path d="M 308.644531 202 L 323 202 L 323 209 L 308.644531 209 Z M 308.644531 202 " clip-rule="nonzero"/></clipPath></defs><rect x="-37.5" width="450" fill="#ffffff" y="-37.499999" height="449.999989" fill-opacity="1"/><rect x="-37.5" width="450" fill="#ffffff" y="-37.499999" height="449.999989" fill-opacity="1"/><g fill="#000000" fill-opacity="1"><g transform="translate(77.118697, 203.295854)"><g><path d="M 7.738281 -4.691406 L 7.738281 -9.511719 L 15.878906 -9.511719 L 15.878906 -14.101562 L 7.738281 -14.101562 L 7.738281 -18.757812 L 16.75 -18.757812 L 16.75 -23.449219 L 2.679688 -23.449219 L 2.679688 0 L 17.117188 0 L 17.117188 -4.691406 Z M 7.738281 -4.691406 "/></g></g></g><g fill="#000000" fill-opacity="1"><g transform="translate(95.842728, 203.295854)"><g><path d="M 7.738281 -4.691406 L 7.738281 -23.449219 L 2.679688 -23.449219 L 2.679688 0 L 16.75 0 L 16.75 -4.691406 Z M 7.738281 -4.691406 "/></g></g></g><g fill="#000000" fill-opacity="1"><g transform="translate(113.327421, 203.295854)"><g><path d="M 13.800781 0.535156 C 20.9375 0.535156 26.261719 -4.722656 26.261719 -11.722656 C 26.261719 -18.691406 20.9375 -23.953125 13.800781 -23.953125 C 6.632812 -23.953125 1.273438 -18.660156 1.273438 -11.722656 C 1.273438 -4.757812 6.632812 0.535156 13.800781 0.535156 Z M 13.800781 -4.253906 C 9.613281 -4.253906 6.433594 -7.503906 6.433594 -11.722656 C 6.433594 -15.945312 9.613281 -19.160156 13.800781 -19.160156 C 17.988281 -19.160156 21.105469 -15.980469 21.105469 -11.722656 C 21.105469 -7.46875 17.988281 -4.253906 13.800781 -4.253906 Z M 13.800781 -4.253906 "/></g></g></g><g fill="#000000" fill-opacity="1"><g transform="translate(140.894284, 203.295854)"><g><path d="M 13.433594 0.535156 C 19.226562 0.535156 23.785156 -3.351562 24.855469 -9.144531 L 19.730469 -9.144531 C 18.894531 -6.199219 16.515625 -4.320312 13.433594 -4.320312 C 9.445312 -4.320312 6.464844 -7.46875 6.464844 -11.691406 C 6.464844 -15.910156 9.445312 -19.09375 13.433594 -19.09375 C 16.382812 -19.09375 18.726562 -17.351562 19.699219 -14.605469 L 24.753906 -14.605469 C 23.683594 -20.167969 19.128906 -23.953125 13.433594 -23.953125 C 6.53125 -23.953125 1.304688 -18.660156 1.304688 -11.691406 C 1.304688 -4.757812 6.53125 0.535156 13.433594 0.535156 Z M 13.433594 0.535156 "/></g></g></g><g fill="#000000" fill-opacity="1"><g transform="translate(166.71937, 203.295854)"><g><path d="M 2.679688 0 L 7.738281 0 L 7.738281 -23.449219 L 2.679688 -23.449219 Z M 2.679688 0 "/></g></g></g><g fill="#000000" fill-opacity="1"><g transform="translate(177.16999, 203.295854)"><g><path d="M 18.828125 -23.449219 L 0.703125 -23.449219 L 0.703125 -18.726562 L 7.234375 -18.726562 L 7.234375 0 L 12.292969 0 L 12.292969 -18.726562 L 18.828125 -18.726562 Z M 18.828125 -23.449219 "/></g></g></g><g fill="#000000" fill-opacity="1"><g transform="translate(196.731405, 203.295854)"><g><path d="M 22.210938 -23.449219 L 16.78125 -23.449219 L 11.355469 -14.035156 L 5.960938 -23.449219 L 0.570312 -23.449219 L 8.742188 -9.480469 L 8.742188 0 L 13.933594 0 L 13.933594 -9.445312 Z M 22.210938 -23.449219 "/></g></g></g><g fill="#000000" fill-opacity="1"><g transform="translate(219.474905, 203.295854)"><g/></g></g><g fill="#000000" fill-opacity="1"><g transform="translate(227.480352, 203.295854)"><g><path d="M 17.554688 -23.449219 L 11.792969 -6.867188 L 5.863281 -23.449219 L 0.269531 -23.449219 L 9.414062 0 L 14.203125 0 L 23.082031 -23.449219 Z M 17.554688 -23.449219 "/></g></g></g><g fill="#000000" fill-opacity="1"><g transform="translate(250.994242, 203.295854)"><g><path d="M 2.679688 0 L 7.738281 0 L 7.738281 -23.449219 L 2.679688 -23.449219 Z M 2.679688 0 "/></g></g></g><g fill="#000000" fill-opacity="1"><g transform="translate(261.444861, 203.295854)"><g><path d="M 10.453125 0.46875 C 15.308594 0.46875 19.328125 -1.976562 19.328125 -7.035156 C 19.328125 -12.292969 14.839844 -13.398438 11.289062 -14.304688 C 8.777344 -14.90625 6.765625 -15.410156 6.765625 -17.050781 C 6.765625 -18.59375 8.410156 -19.296875 10.050781 -19.296875 C 11.960938 -19.296875 13.632812 -18.355469 13.632812 -16.3125 L 18.625 -16.3125 C 18.625 -21.003906 15.578125 -23.882812 10.183594 -23.882812 C 4.992188 -23.882812 1.675781 -21.339844 1.675781 -16.851562 C 1.675781 -11.792969 5.960938 -10.753906 9.511719 -9.882812 C 12.058594 -9.3125 14.203125 -8.808594 14.203125 -6.96875 C 14.203125 -5.226562 12.328125 -4.222656 10.417969 -4.222656 C 8.339844 -4.222656 6.464844 -5.328125 6.464844 -7.570312 L 1.339844 -7.570312 C 1.339844 -2.546875 5.058594 0.46875 10.453125 0.46875 Z M 10.453125 0.46875 "/></g></g></g><g fill="#000000" fill-opacity="1"><g transform="translate(282.17862, 203.295854)"><g><path d="M 18.828125 -23.449219 L 0.703125 -23.449219 L 0.703125 -18.726562 L 7.234375 -18.726562 L 7.234375 0 L 12.292969 0 L 12.292969 -18.726562 L 18.828125 -18.726562 Z M 18.828125 -23.449219 "/></g></g></g><g fill="#000000" fill-opacity="1"><g transform="translate(301.740035, 203.295854)"><g><path d="M 18.222656 0 L 23.75 0 L 14.269531 -23.449219 L 9.480469 -23.449219 L 0.269531 0 L 5.660156 0 L 7.269531 -4.421875 L 16.582031 -4.421875 Z M 11.925781 -17.25 L 15.007812 -8.84375 L 8.84375 -8.84375 Z M 11.925781 -17.25 "/></g></g></g><g clip-path="url(#2fcad42489)"><path fill="#000000" d="M 8.074219 153.9375 L 33.109375 205.195312 L 30.078125 214.632812 L 96.9375 139.105469 L 45.332031 187.332031 L 29.15625 153.9375 Z M 8.074219 153.9375 " fill-opacity="1" fill-rule="evenodd"/></g><g clip-path="url(#41d56195fd)"><path fill="#000000" d="M 96.9375 139.105469 L 40.960938 220.535156 L 48.796875 235.890625 Z M 96.9375 139.105469 " fill-opacity="1" fill-rule="evenodd"/></g><path fill="#000000" d="M 321.421875 201.09375 C 321.023438 201.226562 320.605469 201.292969 320.179688 201.261719 C 319.84375 201.242188 319.519531 201.160156 319.214844 201.023438 C 318.617188 200.746094 318.160156 200.277344 317.832031 199.730469 C 317.71875 199.683594 317.605469 199.636719 317.492188 199.59375 C 317.828125 200.542969 318.445312 201.46875 319.417969 201.910156 C 319.742188 202.0625 320.089844 202.148438 320.449219 202.171875 C 321.265625 202.226562 322.046875 201.964844 322.734375 201.550781 C 322.285156 201.398438 321.847656 201.246094 321.421875 201.09375 " fill-opacity="1" fill-rule="evenodd"/><path fill="#000000" d="M 346.910156 191.085938 C 350.859375 190.570312 351.90625 194.964844 351.011719 198.359375 C 353.78125 196.386719 358.335938 193.355469 362.976562 192.152344 C 363.054688 191.328125 363.222656 189.96875 363.691406 188.6875 C 364.371094 186.832031 365.804688 185.417969 367.828125 186.757812 C 365.824219 185.808594 364.746094 186.976562 364.078125 188.933594 C 363.644531 190.210938 363.488281 191.550781 363.542969 192.386719 C 358.132812 194.640625 352.820312 197.957031 348.960938 201.59375 C 351 196.894531 351.152344 192.175781 346.910156 191.085938 " fill-opacity="1" fill-rule="evenodd"/><path fill="#000000" d="M 346.910156 191.085938 C 350.859375 190.570312 351.90625 194.964844 351.011719 198.359375 C 354.082031 196.171875 358.011719 193.410156 363.542969 192.386719 C 357.519531 194.71875 353.105469 197.691406 348.960938 201.59375 C 351 196.894531 351.152344 192.175781 346.910156 191.085938 " fill-opacity="1" fill-rule="evenodd"/><path fill="#000000" d="M 341.421875 188.921875 C 335.058594 193.917969 333.367188 193.25 325.539062 191.984375 L 316.503906 190.304688 L 325.671875 191.257812 C 333.167969 192.390625 334.660156 193.101562 341.421875 188.921875 " fill-opacity="1" fill-rule="evenodd"/><path fill="#000000" d="M 337.578125 189.125 C 337.296875 189.726562 336.789062 190.160156 336.175781 190.542969 C 335.71875 190.824219 335.128906 191.054688 334.222656 191.152344 C 330.828125 191.519531 329.144531 190.601562 327 190.347656 C 329.132812 190.167969 331.792969 191.105469 333.824219 190.726562 C 334.257812 190.648438 334.617188 190.53125 334.871094 190.375 C 335.417969 190.035156 335.867188 189.652344 336.113281 189.117188 L 336.136719 189.066406 C 336.050781 189.050781 335.960938 189.035156 335.867188 189.019531 C 333.242188 188.59375 331.226562 188.542969 329.824219 188.820312 C 331.261719 188.417969 333.410156 188.390625 336.257812 188.789062 C 336.308594 188.664062 336.351562 188.550781 336.378906 188.449219 C 336.148438 188.308594 335.738281 188.230469 335.121094 188.15625 C 332.503906 187.832031 330.507812 187.859375 329.128906 188.1875 C 330.683594 187.6875 333.105469 187.605469 336.390625 188.007812 L 336.429688 188.011719 C 336.359375 187.632812 335.886719 187.523438 334.855469 187.441406 C 332.148438 187.226562 330.09375 187.339844 328.6875 187.734375 C 330.261719 187.15625 332.75 186.964844 336.15625 187.238281 C 338.046875 187.386719 338.273438 187.613281 337.578125 189.125 " fill-opacity="1" fill-rule="evenodd"/><path fill="#000000" d="M 365.429688 184.046875 C 359.496094 182.707031 349.078125 182.886719 343.859375 183.789062 L 343.921875 182.972656 C 349.125 182.261719 359.511719 182.480469 365.429688 184.046875 " fill-opacity="1" fill-rule="evenodd"/><path fill="#000000" d="M 344.933594 183.625 C 344.550781 183.652344 344.242188 183.761719 343.859375 183.789062 C 341.25 180.699219 343.417969 176.828125 348.996094 176.582031 C 354.851562 176.324219 360.320312 180.039062 363.519531 183.511719 C 359.46875 180.375 355.957031 177.183594 349.785156 177.5 C 345.496094 177.722656 342.300781 180.175781 344.933594 183.625 " fill-opacity="1" fill-rule="evenodd"/><path fill="#000000" d="M 347.214844 191.582031 C 347.089844 191.578125 346.964844 191.582031 346.84375 191.59375 C 347.117188 191.609375 347.375 191.679688 347.617188 191.800781 C 348.371094 192.171875 348.839844 192.984375 349.085938 193.832031 C 349.253906 194.40625 349.332031 195.027344 349.339844 195.652344 C 349.347656 196.285156 349.285156 196.925781 349.167969 197.542969 C 349.019531 198.304688 348.78125 199.082031 348.457031 199.816406 C 348.128906 200.550781 347.710938 201.246094 347.210938 201.84375 C 346.835938 202.296875 346.382812 202.71875 345.886719 203.019531 C 345.386719 203.320312 344.847656 203.5 344.289062 203.464844 C 344 203.445312 343.722656 203.367188 343.464844 203.226562 C 342.691406 202.808594 342.234375 201.925781 342.007812 201.023438 C 341.902344 200.597656 341.839844 200.152344 341.820312 199.699219 C 341.804688 200.402344 341.867188 201.101562 342.03125 201.757812 C 342.277344 202.738281 342.769531 203.695312 343.605469 204.148438 C 343.882812 204.300781 344.183594 204.386719 344.5 204.40625 C 345.097656 204.445312 345.683594 204.253906 346.222656 203.925781 C 346.757812 203.601562 347.246094 203.144531 347.652344 202.65625 C 348.191406 202.007812 348.640625 201.253906 348.992188 200.457031 C 349.339844 199.664062 349.597656 198.824219 349.753906 198 C 349.878906 197.335938 349.945312 196.640625 349.9375 195.960938 C 349.925781 195.28125 349.839844 194.617188 349.65625 193.996094 C 349.386719 193.082031 348.882812 192.207031 348.070312 191.804688 C 347.800781 191.671875 347.515625 191.597656 347.214844 191.582031 " fill-opacity="1" fill-rule="evenodd"/><path fill="#000000" d="M 347.820312 191.816406 C 348.019531 191.910156 348.203125 192.027344 348.375 192.167969 C 348.199219 192.753906 348.03125 193.332031 347.867188 193.890625 C 347.566406 194.917969 347.277344 195.902344 347 196.851562 C 347.566406 196.84375 348.132812 196.835938 348.699219 196.824219 C 349.078125 196.820312 349.457031 196.8125 349.835938 196.808594 C 349.804688 197.378906 349.722656 197.96875 349.589844 198.554688 C 349.167969 198.648438 348.742188 198.742188 348.320312 198.835938 C 348.078125 198.890625 347.835938 198.945312 347.59375 199 C 347.4375 199.554688 347.101562 200.058594 346.691406 200.234375 C 346.699219 200.585938 346.707031 200.933594 346.714844 201.273438 C 346.734375 201.925781 346.75 202.558594 346.765625 203.175781 C 346.4375 203.386719 346.101562 203.546875 345.769531 203.652344 C 345.675781 203.089844 345.582031 202.511719 345.484375 201.921875 C 345.394531 201.390625 345.304688 200.84375 345.210938 200.289062 C 345.140625 200.269531 345.078125 200.238281 345.015625 200.203125 C 344.617188 200.578125 344.222656 200.945312 343.839844 201.308594 C 343.410156 201.714844 342.988281 202.109375 342.574219 202.496094 C 342.359375 202.191406 342.175781 201.835938 342.027344 201.441406 C 342.414062 200.949219 342.8125 200.453125 343.214844 199.945312 C 343.5625 199.507812 343.914062 199.066406 344.273438 198.613281 C 344.253906 199.21875 344.433594 199.714844 344.753906 199.949219 C 344.351562 199.3125 344.421875 198.425781 344.730469 197.714844 C 345.035156 197.007812 345.578125 196.460938 346.125 196.492188 C 346.347656 196.503906 346.507812 196.621094 346.667969 196.761719 C 346.828125 196.910156 346.992188 197.054688 347.15625 197.199219 C 346.9375 196.960938 346.582031 196.671875 346.402344 196.5 C 346.269531 196.375 346.105469 196.296875 345.917969 196.285156 C 345.257812 196.25 344.550781 197.0625 344.335938 198.105469 C 344.332031 198.117188 344.332031 198.125 344.332031 198.132812 C 344.011719 197.707031 343.6875 197.277344 343.359375 196.839844 C 343.046875 196.425781 342.730469 196.003906 342.414062 195.578125 C 342.65625 195.007812 342.945312 194.476562 343.265625 194 C 343.59375 194.320312 343.925781 194.644531 344.257812 194.964844 C 344.714844 195.40625 345.160156 195.84375 345.601562 196.273438 C 345.933594 195.335938 346.277344 194.363281 346.632812 193.355469 C 346.835938 192.789062 347.039062 192.214844 347.246094 191.628906 C 347.441406 191.667969 347.632812 191.726562 347.820312 191.816406 Z M 347.191406 199.085938 C 347.359375 198.660156 347.433594 197.890625 347.042969 197.6875 C 347.265625 198.042969 346.96875 198.859375 346.757812 199.183594 C 346.605469 199.414062 346.378906 199.617188 346.113281 199.578125 C 346.21875 199.824219 346.433594 199.898438 346.644531 199.789062 C 346.90625 199.65625 347.082031 199.371094 347.191406 199.085938 " fill-opacity="1" fill-rule="evenodd"/><path fill="#000000" d="M 366.542969 186.691406 C 366.480469 186.691406 366.421875 186.703125 366.363281 186.714844 C 366.496094 186.710938 366.628906 186.730469 366.753906 186.785156 C 367.140625 186.945312 367.414062 187.359375 367.578125 187.800781 C 367.800781 188.390625 367.859375 189.089844 367.8125 189.742188 C 367.753906 190.542969 367.527344 191.378906 367.125 192.03125 C 366.824219 192.523438 366.378906 192.976562 365.859375 193.003906 C 365.722656 193.011719 365.585938 192.988281 365.457031 192.933594 C 365.070312 192.773438 364.796875 192.359375 364.632812 191.921875 C 364.554688 191.710938 364.496094 191.492188 364.453125 191.261719 C 364.496094 191.621094 364.570312 191.96875 364.691406 192.289062 C 364.871094 192.761719 365.164062 193.207031 365.578125 193.378906 C 365.71875 193.4375 365.863281 193.460938 366.011719 193.453125 C 366.570312 193.421875 367.050781 192.9375 367.375 192.410156 C 367.808594 191.707031 368.050781 190.808594 368.113281 189.945312 C 368.164062 189.242188 368.101562 188.492188 367.859375 187.855469 C 367.683594 187.382812 367.390625 186.9375 366.972656 186.765625 C 366.835938 186.707031 366.6875 186.679688 366.542969 186.691406 " fill-opacity="1" fill-rule="evenodd"/><path fill="#000000" d="M 366.824219 186.785156 C 366.925781 186.824219 367.023438 186.878906 367.109375 186.945312 C 367.0625 187.273438 367.011719 187.589844 366.964844 187.898438 C 366.882812 188.460938 366.800781 188.996094 366.722656 189.507812 C 366.988281 189.46875 367.253906 189.433594 367.519531 189.398438 C 367.699219 189.375 367.878906 189.351562 368.054688 189.324219 C 368.070312 189.625 368.0625 189.929688 368.027344 190.238281 L 367.449219 190.457031 L 367.121094 190.578125 C 367.078125 190.871094 366.949219 191.144531 366.769531 191.257812 L 366.839844 191.777344 C 366.882812 192.101562 366.925781 192.417969 366.964844 192.71875 C 366.828125 192.84375 366.683594 192.941406 366.535156 193.011719 C 366.460938 192.738281 366.382812 192.460938 366.304688 192.171875 C 366.230469 191.910156 366.160156 191.644531 366.082031 191.367188 C 366.050781 191.363281 366.015625 191.351562 365.984375 191.335938 L 365.503906 191.960938 C 365.328125 192.1875 365.15625 192.40625 364.988281 192.625 C 364.871094 192.484375 364.761719 192.320312 364.667969 192.128906 C 364.816406 191.863281 364.972656 191.585938 365.128906 191.304688 C 365.261719 191.066406 365.402344 190.820312 365.542969 190.566406 C 365.570312 190.878906 365.683594 191.121094 365.847656 191.222656 L 365.84375 191.214844 L 365.835938 191.207031 C 365.429688 190.6875 365.714844 189.398438 366.289062 189.367188 C 366.429688 189.359375 366.535156 189.457031 366.636719 189.535156 L 366.816406 189.679688 C 366.699219 189.566406 366.515625 189.433594 366.417969 189.355469 C 366.347656 189.296875 366.269531 189.265625 366.179688 189.269531 C 365.863281 189.289062 365.578125 189.75 365.539062 190.304688 L 365.539062 190.316406 C 365.363281 190.117188 365.179688 189.910156 364.996094 189.703125 C 364.820312 189.503906 364.644531 189.300781 364.460938 189.09375 C 364.539062 188.777344 364.640625 188.480469 364.765625 188.207031 L 365.304688 188.667969 C 365.550781 188.875 365.792969 189.082031 366.027344 189.28125 C 366.128906 188.769531 366.234375 188.238281 366.34375 187.679688 C 366.40625 187.363281 366.472656 187.042969 366.535156 186.714844 C 366.632812 186.722656 366.730469 186.746094 366.824219 186.785156 Z M 366.9375 190.644531 C 366.980469 190.433594 366.996094 190.023438 366.789062 189.9375 C 366.933594 190.152344 366.796875 190.972656 366.460938 190.957031 C 366.613281 191.238281 366.863281 190.964844 366.9375 190.644531 " fill-opacity="1" fill-rule="evenodd"/><path fill="#000000" d="M 350.933594 192.851562 C 352.054688 193.835938 352.363281 195.230469 352.386719 195.914062 C 353.414062 195.183594 355.085938 194.574219 356.9375 194.230469 C 354.921875 195.011719 353.035156 196.113281 351.648438 197.417969 C 351.878906 196.15625 351.675781 193.761719 350.933594 192.851562 " fill-opacity="1" fill-rule="evenodd"/><g clip-path="url(#c0121c5266)"><path fill="#000000" d="M 369.234375 190.054688 C 369.972656 189.101562 370.679688 188.011719 370.433594 187.066406 C 369.878906 184.917969 363.839844 183.964844 361.871094 183.761719 C 356.015625 183.167969 348.082031 183.085938 343.859375 183.789062 L 343.921875 182.972656 C 348.136719 182.402344 355.953125 182.410156 361.878906 183.25 C 364.019531 183.554688 370.519531 184.597656 370.863281 187.097656 C 371.011719 188.167969 370.066406 189.292969 369.234375 190.054688 " fill-opacity="1" fill-rule="evenodd"/></g><path fill="#000000" d="M 361.613281 181.640625 C 361.636719 181.449219 361.710938 180.929688 361.773438 180.769531 C 361.84375 180.601562 362.019531 180.496094 362.214844 180.515625 C 363.289062 180.621094 364.21875 180.945312 365.019531 181.46875 C 365.1875 181.578125 365.25 181.773438 365.171875 181.945312 C 365.011719 182.328125 364.820312 182.628906 364.59375 182.839844 C 364.515625 182.910156 364.429688 182.945312 364.324219 182.953125 C 363.988281 182.972656 363.636719 182.972656 363.277344 182.953125 C 363.484375 182.957031 363.714844 182.929688 363.910156 182.917969 C 364 182.914062 364.078125 182.882812 364.140625 182.820312 C 364.335938 182.640625 364.476562 182.40625 364.613281 182.082031 C 364.675781 181.933594 364.625 181.765625 364.484375 181.675781 C 363.796875 181.226562 363 180.949219 362.085938 180.859375 C 361.957031 180.847656 361.835938 180.863281 361.769531 181.082031 C 361.75 181.152344 361.707031 181.589844 361.699219 181.703125 C 361.695312 181.777344 361.632812 181.71875 361.613281 181.640625 " fill-opacity="1" fill-rule="evenodd"/><path fill="#000000" d="M 361.0625 182.730469 C 361.355469 182.769531 361.648438 182.808594 361.941406 182.847656 C 361.957031 182.851562 361.972656 182.851562 361.984375 182.855469 C 358.320312 179.996094 355.105469 177.632812 349.808594 177.90625 C 348.65625 177.964844 347.425781 178.203125 346.390625 178.699219 C 346.027344 178.878906 345.671875 179.09375 345.359375 179.359375 C 345.566406 179.222656 345.785156 179.101562 346.003906 178.996094 C 347.039062 178.496094 348.265625 178.257812 349.421875 178.199219 C 354.457031 177.941406 357.613281 180.0625 361.0625 182.730469 Z M 360.328125 182.632812 C 357.949219 180.660156 355.484375 179.128906 352.273438 178.585938 C 354.96875 179.289062 357.136719 180.71875 359.253906 182.488281 L 360.328125 182.632812 " fill-opacity="1" fill-rule="evenodd"/><path fill="#000000" d="M 315.570312 198.886719 C 318.046875 199.730469 334.929688 204.03125 338.546875 203.375 C 337.578125 200.457031 337.667969 195.929688 339.886719 192.894531 C 342.230469 189.691406 345.945312 189.101562 349.453125 189.265625 C 354.175781 189.484375 358.902344 190.957031 363.027344 188.183594 C 359.152344 191.53125 354.25 190.125 349.703125 189.917969 C 346.4375 189.769531 343.359375 190.242188 340.980469 193.539062 C 338.660156 196.75 339.707031 202.90625 340.402344 204.632812 C 333.269531 205.855469 319.238281 200.621094 315.570312 198.886719 " fill-opacity="1" fill-rule="evenodd"/><path fill="#000000" d="M 326.277344 201.050781 L 325.765625 200.929688 C 325.789062 200.585938 325.816406 200.246094 325.839844 199.902344 C 325.84375 199.851562 325.847656 199.796875 325.851562 199.746094 L 325.292969 199.589844 L 320.71875 198.332031 L 325.386719 199.296875 C 325.722656 199.367188 326.058594 199.4375 326.390625 199.507812 C 326.382812 199.65625 326.371094 199.808594 326.359375 199.957031 L 326.277344 201.050781 " fill-opacity="1" fill-rule="evenodd"/><path fill="#000000" d="M 350.433594 176.597656 C 343.171875 176.117188 330.503906 175.523438 322.84375 181.042969 C 330.207031 174.582031 341.980469 175.667969 350.433594 176.597656 " fill-opacity="1" fill-rule="evenodd"/><g clip-path="url(#cdf5514d39)"><path fill="#000000" d="M 342.339844 207.414062 L 345.855469 204.898438 L 340.019531 207.867188 C 341.542969 206.910156 343.078125 205.96875 344.625 205.039062 C 345.328125 205.046875 345.992188 204.8125 346.582031 204.457031 C 347.191406 204.085938 347.730469 203.578125 348.175781 203.042969 C 348.480469 202.679688 348.75 202.289062 348.992188 201.882812 C 354.5625 198.957031 360.320312 196.082031 365.449219 193.699219 C 365.585938 193.753906 365.726562 193.789062 365.875 193.796875 C 357.925781 197.996094 350.105469 202.582031 342.339844 207.414062 Z M 367.605469 192.707031 C 368.496094 192.304688 369.363281 191.921875 370.199219 191.554688 L 370.195312 191.558594 L 370.199219 191.554688 C 369.261719 192.03125 368.324219 192.511719 367.390625 193 C 367.46875 192.90625 367.542969 192.808594 367.605469 192.707031 Z M 344.585938 205.039062 C 341.367188 206.835938 338.332031 208.570312 335.699219 210.128906 L 342.5 205.742188 L 333.339844 210.582031 C 336.332031 208.796875 339.8125 206.828125 343.515625 204.8125 C 343.8125 204.9375 344.125 205.011719 344.453125 205.03125 C 344.496094 205.035156 344.542969 205.039062 344.585938 205.039062 " fill-opacity="1" fill-rule="evenodd"/></g><g clip-path="url(#81e4c2b7b3)"><path fill="#000000" d="M 317.660156 205.339844 L 321.175781 202.824219 L 315.339844 205.792969 C 316.964844 204.773438 318.601562 203.769531 320.25 202.785156 C 320.300781 202.789062 320.351562 202.792969 320.40625 202.796875 C 321.089844 202.84375 321.753906 202.707031 322.367188 202.449219 C 320.796875 203.402344 319.226562 204.367188 317.660156 205.339844 Z M 320.234375 202.78125 C 316.894531 204.644531 313.742188 206.445312 311.019531 208.054688 L 317.824219 203.667969 L 308.660156 208.507812 C 311.757812 206.660156 315.382812 204.613281 319.234375 202.523438 C 319.554688 202.65625 319.890625 202.742188 320.234375 202.78125 " fill-opacity="1" fill-rule="evenodd"/></g></svg>